<svg xmlns="http://www.w3.org/2000/svg" xmlns:xlink="http://www.w3.org/1999/xlink" width="200" zoomAndPan="magnify" viewBox="0 0 150 37.5" height="50" preserveAspectRatio="xMidYMid meet" version="1.0"><defs><g/></defs><g fill="#ff3131" fill-opacity="1"><g transform="translate(40.184903, 21.804883)"><g><path d="M 1.921875 -18.171875 L 6.296875 -18.171875 C 9.960938 -18.171875 12.523438 -17.304688 13.984375 -15.578125 C 15.441406 -13.847656 16.171875 -11.785156 16.171875 -9.390625 C 16.171875 -7.722656 15.851562 -6.1875 15.21875 -4.78125 C 14.59375 -3.375 13.5625 -2.222656 12.125 -1.328125 C 10.6875 -0.441406 8.796875 0 6.453125 0 L 1.921875 0 Z M 6.75 -2.453125 C 9.019531 -2.453125 10.671875 -3.097656 11.703125 -4.390625 C 12.734375 -5.679688 13.25 -7.304688 13.25 -9.265625 C 13.25 -11.179688 12.726562 -12.738281 11.6875 -13.9375 C 10.65625 -15.144531 9.007812 -15.75 6.75 -15.75 L 4.703125 -15.75 L 4.703125 -2.453125 Z M 6.75 -2.453125 "/></g></g></g><g fill="#ff3131" fill-opacity="1"><g transform="translate(57.179819, 21.804883)"><g><path d="M 2.25 -18.171875 L 5.015625 -18.171875 L 5.015625 0 L 2.25 0 Z M 2.25 -18.171875 "/></g></g></g><g fill="#ff3131" fill-opacity="1"><g transform="translate(64.442179, 21.804883)"><g><path d="M 6.109375 0.25 C 5.117188 0.25 4.132812 0.078125 3.15625 -0.265625 C 2.1875 -0.617188 1.488281 -1.007812 1.0625 -1.4375 L 2.375 -3.78125 C 2.71875 -3.46875 3.253906 -3.140625 3.984375 -2.796875 C 4.722656 -2.460938 5.429688 -2.296875 6.109375 -2.296875 C 6.984375 -2.296875 7.695312 -2.5 8.25 -2.90625 C 8.800781 -3.320312 9.078125 -3.894531 9.078125 -4.625 C 9.078125 -5.1875 8.925781 -5.671875 8.625 -6.078125 C 8.332031 -6.492188 7.96875 -6.835938 7.53125 -7.109375 C 7.101562 -7.378906 6.492188 -7.710938 5.703125 -8.109375 C 4.765625 -8.566406 4.125 -8.910156 3.78125 -9.140625 C 2.1875 -10.210938 1.390625 -11.695312 1.390625 -13.59375 C 1.390625 -15.15625 1.90625 -16.351562 2.9375 -17.1875 C 3.976562 -18.019531 5.289062 -18.4375 6.875 -18.4375 C 8.570312 -18.4375 10.015625 -17.953125 11.203125 -16.984375 L 9.890625 -14.734375 C 9.578125 -15.066406 9.132812 -15.347656 8.5625 -15.578125 C 8 -15.816406 7.394531 -15.9375 6.75 -15.9375 C 5.925781 -15.9375 5.28125 -15.75 4.8125 -15.375 C 4.34375 -15.007812 4.109375 -14.46875 4.109375 -13.75 C 4.109375 -13.238281 4.253906 -12.78125 4.546875 -12.375 C 4.847656 -11.96875 5.222656 -11.613281 5.671875 -11.3125 C 6.128906 -11.019531 6.742188 -10.660156 7.515625 -10.234375 C 8.253906 -9.816406 8.820312 -9.488281 9.21875 -9.25 C 9.613281 -9.019531 9.984375 -8.738281 10.328125 -8.40625 C 10.804688 -7.976562 11.191406 -7.46875 11.484375 -6.875 C 11.785156 -6.28125 11.9375 -5.628906 11.9375 -4.921875 C 11.9375 -3.816406 11.6875 -2.875 11.1875 -2.09375 C 10.6875 -1.320312 9.992188 -0.738281 9.109375 -0.34375 C 8.222656 0.0507812 7.222656 0.25 6.109375 0.25 Z M 6.109375 0.25 "/></g></g></g><g fill="#ff3131" fill-opacity="1"><g transform="translate(77.410676, 21.804883)"><g><path d="M 8.578125 -18.1875 L 17.328125 0 L 14.140625 0 L 12.578125 -3.5625 L 4.25 -3.5625 L 2.6875 0 L -0.390625 0 L 8.3125 -18.1875 Z M 7.34375 -10.453125 L 5.359375 -6.0625 L 11.5 -6.0625 L 9.546875 -10.4375 L 8.484375 -12.921875 L 8.421875 -12.921875 Z M 7.34375 -10.453125 "/></g></g></g><g fill="#ff3131" fill-opacity="1"><g transform="translate(94.331484, 21.804883)"><g><path d="M 1.921875 -18.171875 L 6.546875 -18.171875 C 9.148438 -18.171875 10.878906 -17.734375 11.734375 -16.859375 C 12.597656 -15.984375 13.03125 -14.925781 13.03125 -13.6875 C 13.03125 -12.863281 12.847656 -12.085938 12.484375 -11.359375 C 12.117188 -10.628906 11.539062 -10.082031 10.75 -9.71875 C 11.914062 -9.414062 12.773438 -8.894531 13.328125 -8.15625 C 13.878906 -7.414062 14.15625 -6.539062 14.15625 -5.53125 C 14.15625 -4.476562 13.988281 -3.554688 13.65625 -2.765625 C 13.332031 -1.972656 12.648438 -1.3125 11.609375 -0.78125 C 10.578125 -0.257812 9.082031 0 7.125 0 L 1.921875 0 Z M 7 -10.453125 C 8.164062 -10.453125 8.992188 -10.734375 9.484375 -11.296875 C 9.984375 -11.867188 10.234375 -12.59375 10.234375 -13.46875 C 10.234375 -15.03125 9.113281 -15.8125 6.875 -15.8125 L 4.640625 -15.8125 L 4.640625 -10.453125 Z M 7.484375 -2.328125 C 8.984375 -2.328125 9.992188 -2.625 10.515625 -3.21875 C 11.035156 -3.820312 11.296875 -4.585938 11.296875 -5.515625 C 11.296875 -6.390625 11 -7.0625 10.40625 -7.53125 C 9.8125 -8.007812 8.914062 -8.25 7.71875 -8.25 L 4.640625 -8.25 L 4.640625 -2.328125 Z M 7.484375 -2.328125 "/></g></g></g><g fill="#ff3131" fill-opacity="1"><g transform="translate(109.794876, 21.804883)"><g><path d="M 1.921875 -18.171875 L 4.71875 -18.171875 L 4.71875 -2.46875 L 9.9375 -2.46875 L 9.9375 0 L 1.921875 0 Z M 1.921875 -18.171875 "/></g></g></g><g fill="#ff3131" fill-opacity="1"><g transform="translate(120.466103, 21.804883)"><g><path d="M 1.90625 -18.171875 L 9.859375 -18.171875 L 9.859375 -15.75 L 4.640625 -15.75 L 4.640625 -10.734375 L 8.84375 -10.734375 L 8.84375 -8.25 L 4.640625 -8.25 L 4.640625 -2.453125 L 10.671875 -2.453125 L 10.671875 0 L 1.90625 0 Z M 1.90625 -18.171875 "/></g></g></g><g fill="#ff3131" fill-opacity="1"><g transform="translate(132.001894, 21.804883)"><g><path d="M 1.921875 -18.171875 L 6.296875 -18.171875 C 9.960938 -18.171875 12.523438 -17.304688 13.984375 -15.578125 C 15.441406 -13.847656 16.171875 -11.785156 16.171875 -9.390625 C 16.171875 -7.722656 15.851562 -6.1875 15.21875 -4.78125 C 14.59375 -3.375 13.5625 -2.222656 12.125 -1.328125 C 10.6875 -0.441406 8.796875 0 6.453125 0 L 1.921875 0 Z M 6.75 -2.453125 C 9.019531 -2.453125 10.671875 -3.097656 11.703125 -4.390625 C 12.734375 -5.679688 13.25 -7.304688 13.25 -9.265625 C 13.25 -11.179688 12.726562 -12.738281 11.6875 -13.9375 C 10.65625 -15.144531 9.007812 -15.75 6.75 -15.75 L 4.703125 -15.75 L 4.703125 -2.453125 Z M 6.75 -2.453125 "/></g></g></g></svg>