<svg xmlns="http://www.w3.org/2000/svg" xmlns:xlink="http://www.w3.org/1999/xlink" width="200" zoomAndPan="magnify" viewBox="0 0 150 37.5" height="50" preserveAspectRatio="xMidYMid meet" version="1.0"><defs><g/></defs><g fill="#319f00" fill-opacity="1"><g transform="translate(48.337914, 21.804883)"><g><path d="M 1.90625 -18.171875 L 9.859375 -18.171875 L 9.859375 -15.75 L 4.640625 -15.75 L 4.640625 -10.734375 L 8.84375 -10.734375 L 8.84375 -8.25 L 4.640625 -8.25 L 4.640625 -2.453125 L 10.671875 -2.453125 L 10.671875 0 L 1.90625 0 Z M 1.90625 -18.171875 "/></g></g></g><g fill="#319f00" fill-opacity="1"><g transform="translate(59.873704, 21.804883)"><g><path d="M 4.625 -11.765625 L 4.703125 -9.78125 L 4.703125 0 L 1.921875 0 L 1.921875 -18.1875 L 2.28125 -18.1875 L 12.953125 -6.28125 L 12.859375 -8.359375 L 12.859375 -18.171875 L 15.625 -18.171875 L 15.625 0 L 15.25 0 Z M 4.625 -11.765625 "/></g></g></g><g fill="#319f00" fill-opacity="1"><g transform="translate(77.412064, 21.804883)"><g><path d="M 8.578125 -18.1875 L 17.328125 0 L 14.140625 0 L 12.578125 -3.5625 L 4.25 -3.5625 L 2.6875 0 L -0.390625 0 L 8.3125 -18.1875 Z M 7.34375 -10.453125 L 5.359375 -6.0625 L 11.5 -6.0625 L 9.546875 -10.4375 L 8.484375 -12.921875 L 8.421875 -12.921875 Z M 7.34375 -10.453125 "/></g></g></g><g fill="#319f00" fill-opacity="1"><g transform="translate(94.332873, 21.804883)"><g><path d="M 1.921875 -18.171875 L 6.546875 -18.171875 C 9.148438 -18.171875 10.878906 -17.734375 11.734375 -16.859375 C 12.597656 -15.984375 13.03125 -14.925781 13.03125 -13.6875 C 13.03125 -12.863281 12.847656 -12.085938 12.484375 -11.359375 C 12.117188 -10.628906 11.539062 -10.082031 10.75 -9.71875 C 11.914062 -9.414062 12.773438 -8.894531 13.328125 -8.15625 C 13.878906 -7.414062 14.15625 -6.539062 14.15625 -5.53125 C 14.15625 -4.476562 13.988281 -3.554688 13.65625 -2.765625 C 13.332031 -1.972656 12.648438 -1.3125 11.609375 -0.78125 C 10.578125 -0.257812 9.082031 0 7.125 0 L 1.921875 0 Z M 7 -10.453125 C 8.164062 -10.453125 8.992188 -10.734375 9.484375 -11.296875 C 9.984375 -11.867188 10.234375 -12.59375 10.234375 -13.46875 C 10.234375 -15.03125 9.113281 -15.8125 6.875 -15.8125 L 4.640625 -15.8125 L 4.640625 -10.453125 Z M 7.484375 -2.328125 C 8.984375 -2.328125 9.992188 -2.625 10.515625 -3.21875 C 11.035156 -3.820312 11.296875 -4.585938 11.296875 -5.515625 C 11.296875 -6.390625 11 -7.0625 10.40625 -7.53125 C 9.8125 -8.007812 8.914062 -8.25 7.71875 -8.25 L 4.640625 -8.25 L 4.640625 -2.328125 Z M 7.484375 -2.328125 "/></g></g></g><g fill="#319f00" fill-opacity="1"><g transform="translate(109.796264, 21.804883)"><g><path d="M 1.921875 -18.171875 L 4.71875 -18.171875 L 4.71875 -2.46875 L 9.9375 -2.46875 L 9.9375 0 L 1.921875 0 Z M 1.921875 -18.171875 "/></g></g></g><g fill="#319f00" fill-opacity="1"><g transform="translate(120.467492, 21.804883)"><g><path d="M 1.90625 -18.171875 L 9.859375 -18.171875 L 9.859375 -15.75 L 4.640625 -15.75 L 4.640625 -10.734375 L 8.84375 -10.734375 L 8.84375 -8.25 L 4.640625 -8.25 L 4.640625 -2.453125 L 10.671875 -2.453125 L 10.671875 0 L 1.90625 0 Z M 1.90625 -18.171875 "/></g></g></g><g fill="#319f00" fill-opacity="1"><g transform="translate(132.003282, 21.804883)"><g><path d="M 1.921875 -18.171875 L 6.296875 -18.171875 C 9.960938 -18.171875 12.523438 -17.304688 13.984375 -15.578125 C 15.441406 -13.847656 16.171875 -11.785156 16.171875 -9.390625 C 16.171875 -7.722656 15.851562 -6.1875 15.21875 -4.78125 C 14.59375 -3.375 13.5625 -2.222656 12.125 -1.328125 C 10.6875 -0.441406 8.796875 0 6.453125 0 L 1.921875 0 Z M 6.75 -2.453125 C 9.019531 -2.453125 10.671875 -3.097656 11.703125 -4.390625 C 12.734375 -5.679688 13.25 -7.304688 13.25 -9.265625 C 13.25 -11.179688 12.726562 -12.738281 11.6875 -13.9375 C 10.65625 -15.144531 9.007812 -15.75 6.75 -15.75 L 4.703125 -15.75 L 4.703125 -2.453125 Z M 6.75 -2.453125 "/></g></g></g><g fill="#020000" fill-opacity="1"><g transform="translate(73.203632, 34.144812)"><g><path d="M 9.984375 -3.765625 L 12.5 -10.546875 L 14.21875 -10.546875 L 10.109375 0 L 9.90625 0 L 7.046875 -6.828125 L 4.1875 -0.015625 L 3.984375 -0.015625 L -0.109375 -10.546875 L 1.59375 -10.546875 L 4.109375 -3.765625 L 7.015625 -10.59375 L 7.09375 -10.59375 Z M 9.984375 -3.765625 "/></g></g></g><g fill="#020000" fill-opacity="1"><g transform="translate(87.299169, 34.144812)"><g><path d="M 1.3125 -10.546875 L 2.90625 -10.546875 L 2.90625 0 L 1.3125 0 Z M 1.3125 -10.546875 "/></g></g></g><g fill="#020000" fill-opacity="1"><g transform="translate(91.514925, 34.144812)"><g><path d="M 3.125 -9.140625 L 0.4375 -9.140625 L 0.4375 -10.546875 L 7.4375 -10.546875 L 7.4375 -9.140625 L 4.71875 -9.140625 L 4.71875 0 L 3.125 0 Z M 3.125 -9.140625 "/></g></g></g><g fill="#020000" fill-opacity="1"><g transform="translate(99.387205, 34.144812)"><g><path d="M 1.109375 -10.546875 L 2.71875 -10.546875 L 2.71875 -6.234375 L 6.421875 -6.234375 L 6.421875 -10.546875 L 8.03125 -10.546875 L 8.03125 0 L 6.421875 0 L 6.421875 -4.890625 L 2.71875 -4.890625 L 2.71875 0 L 1.109375 0 Z M 1.109375 -10.546875 "/></g></g></g><g fill="#020000" fill-opacity="1"><g transform="translate(108.521342, 34.144812)"><g/></g></g><g fill="#020000" fill-opacity="1"><g transform="translate(112.034471, 34.144812)"><g><path d="M 1.125 -10.546875 L 2.734375 -10.546875 L 2.734375 -1.4375 L 5.765625 -1.4375 L 5.765625 0 L 1.125 0 Z M 1.125 -10.546875 "/></g></g></g><g fill="#020000" fill-opacity="1"><g transform="translate(118.229053, 34.144812)"><g><path d="M 5.96875 0.140625 C 5.007812 0.140625 4.125 -0.078125 3.3125 -0.515625 C 2.507812 -0.960938 1.867188 -1.597656 1.390625 -2.421875 C 0.910156 -3.242188 0.671875 -4.203125 0.671875 -5.296875 C 0.671875 -6.390625 0.910156 -7.34375 1.390625 -8.15625 C 1.867188 -8.976562 2.507812 -9.609375 3.3125 -10.046875 C 4.125 -10.492188 5.007812 -10.71875 5.96875 -10.71875 C 6.925781 -10.71875 7.804688 -10.492188 8.609375 -10.046875 C 9.421875 -9.609375 10.066406 -8.976562 10.546875 -8.15625 C 11.023438 -7.34375 11.265625 -6.390625 11.265625 -5.296875 C 11.265625 -4.203125 11.023438 -3.242188 10.546875 -2.421875 C 10.066406 -1.597656 9.421875 -0.960938 8.609375 -0.515625 C 7.804688 -0.078125 6.925781 0.140625 5.96875 0.140625 Z M 5.96875 -1.3125 C 6.625 -1.3125 7.222656 -1.460938 7.765625 -1.765625 C 8.316406 -2.078125 8.75 -2.53125 9.0625 -3.125 C 9.382812 -3.726562 9.546875 -4.445312 9.546875 -5.28125 C 9.546875 -6.125 9.382812 -6.84375 9.0625 -7.4375 C 8.75 -8.03125 8.320312 -8.476562 7.78125 -8.78125 C 7.238281 -9.09375 6.632812 -9.25 5.96875 -9.25 C 5.300781 -9.25 4.691406 -9.09375 4.140625 -8.78125 C 3.597656 -8.476562 3.164062 -8.03125 2.84375 -7.4375 C 2.53125 -6.84375 2.375 -6.125 2.375 -5.28125 C 2.375 -4.445312 2.535156 -3.726562 2.859375 -3.125 C 3.191406 -2.53125 3.628906 -2.078125 4.171875 -1.765625 C 4.722656 -1.460938 5.320312 -1.3125 5.96875 -1.3125 Z M 5.96875 -1.3125 "/></g></g></g><g fill="#020000" fill-opacity="1"><g transform="translate(130.159356, 34.144812)"><g><path d="M 5.90625 0.09375 C 4.820312 0.09375 3.878906 -0.144531 3.078125 -0.625 C 2.273438 -1.113281 1.660156 -1.765625 1.234375 -2.578125 C 0.816406 -3.398438 0.609375 -4.304688 0.609375 -5.296875 C 0.609375 -6.335938 0.835938 -7.269531 1.296875 -8.09375 C 1.753906 -8.914062 2.394531 -9.554688 3.21875 -10.015625 C 4.039062 -10.484375 4.972656 -10.71875 6.015625 -10.71875 C 6.484375 -10.71875 6.921875 -10.664062 7.328125 -10.5625 C 7.734375 -10.457031 8.066406 -10.34375 8.328125 -10.21875 C 8.597656 -10.09375 8.773438 -9.984375 8.859375 -9.890625 L 8.15625 -8.46875 C 7.570312 -8.976562 6.8125 -9.234375 5.875 -9.234375 C 5.21875 -9.234375 4.617188 -9.070312 4.078125 -8.75 C 3.546875 -8.425781 3.125 -7.960938 2.8125 -7.359375 C 2.507812 -6.753906 2.359375 -6.054688 2.359375 -5.265625 C 2.359375 -4.535156 2.492188 -3.875 2.765625 -3.28125 C 3.046875 -2.6875 3.445312 -2.21875 3.96875 -1.875 C 4.5 -1.53125 5.128906 -1.359375 5.859375 -1.359375 C 6.691406 -1.359375 7.503906 -1.597656 8.296875 -2.078125 L 8.765625 -0.71875 C 8.554688 -0.53125 8.171875 -0.347656 7.609375 -0.171875 C 7.046875 0.00390625 6.476562 0.09375 5.90625 0.09375 Z M 5.90625 0.09375 "/></g></g></g><g fill="#020000" fill-opacity="1"><g transform="translate(139.465564, 34.144812)"><g><path d="M 3.5625 -4.71875 L 2.703125 -3.65625 L 2.703125 0 L 1.125 0 L 1.125 -10.546875 L 2.703125 -10.546875 L 2.703125 -5.84375 L 6.3125 -10.546875 L 8.234375 -10.546875 L 4.609375 -5.90625 L 8.75 0 L 6.78125 0 Z M 3.5625 -4.71875 "/></g></g></g></svg>