<svg xmlns="http://www.w3.org/2000/svg" xmlns:xlink="http://www.w3.org/1999/xlink" width="200" zoomAndPan="magnify" viewBox="0 0 150 37.5" height="50" preserveAspectRatio="xMidYMid meet" version="1.0"><defs><g/></defs><g fill="#319f00" fill-opacity="1"><g transform="translate(48.337914, 21.804883)"><g><path d="M 1.90625 -18.171875 L 9.859375 -18.171875 L 9.859375 -15.75 L 4.640625 -15.75 L 4.640625 -10.734375 L 8.84375 -10.734375 L 8.84375 -8.25 L 4.640625 -8.25 L 4.640625 -2.453125 L 10.671875 -2.453125 L 10.671875 0 L 1.90625 0 Z M 1.90625 -18.171875 "/></g></g></g><g fill="#319f00" fill-opacity="1"><g transform="translate(59.873704, 21.804883)"><g><path d="M 4.625 -11.765625 L 4.703125 -9.78125 L 4.703125 0 L 1.921875 0 L 1.921875 -18.1875 L 2.28125 -18.1875 L 12.953125 -6.28125 L 12.859375 -8.359375 L 12.859375 -18.171875 L 15.625 -18.171875 L 15.625 0 L 15.25 0 Z M 4.625 -11.765625 "/></g></g></g><g fill="#319f00" fill-opacity="1"><g transform="translate(77.412064, 21.804883)"><g><path d="M 8.578125 -18.1875 L 17.328125 0 L 14.140625 0 L 12.578125 -3.5625 L 4.25 -3.5625 L 2.6875 0 L -0.390625 0 L 8.3125 -18.1875 Z M 7.34375 -10.453125 L 5.359375 -6.0625 L 11.5 -6.0625 L 9.546875 -10.4375 L 8.484375 -12.921875 L 8.421875 -12.921875 Z M 7.34375 -10.453125 "/></g></g></g><g fill="#319f00" fill-opacity="1"><g transform="translate(94.332873, 21.804883)"><g><path d="M 1.921875 -18.171875 L 6.546875 -18.171875 C 9.148438 -18.171875 10.878906 -17.734375 11.734375 -16.859375 C 12.597656 -15.984375 13.03125 -14.925781 13.03125 -13.6875 C 13.03125 -12.863281 12.847656 -12.085938 12.484375 -11.359375 C 12.117188 -10.628906 11.539062 -10.082031 10.75 -9.71875 C 11.914062 -9.414062 12.773438 -8.894531 13.328125 -8.15625 C 13.878906 -7.414062 14.15625 -6.539062 14.15625 -5.53125 C 14.15625 -4.476562 13.988281 -3.554688 13.65625 -2.765625 C 13.332031 -1.972656 12.648438 -1.3125 11.609375 -0.78125 C 10.578125 -0.257812 9.082031 0 7.125 0 L 1.921875 0 Z M 7 -10.453125 C 8.164062 -10.453125 8.992188 -10.734375 9.484375 -11.296875 C 9.984375 -11.867188 10.234375 -12.59375 10.234375 -13.46875 C 10.234375 -15.03125 9.113281 -15.8125 6.875 -15.8125 L 4.640625 -15.8125 L 4.640625 -10.453125 Z M 7.484375 -2.328125 C 8.984375 -2.328125 9.992188 -2.625 10.515625 -3.21875 C 11.035156 -3.820312 11.296875 -4.585938 11.296875 -5.515625 C 11.296875 -6.390625 11 -7.0625 10.40625 -7.53125 C 9.8125 -8.007812 8.914062 -8.25 7.71875 -8.25 L 4.640625 -8.25 L 4.640625 -2.328125 Z M 7.484375 -2.328125 "/></g></g></g><g fill="#319f00" fill-opacity="1"><g transform="translate(109.796264, 21.804883)"><g><path d="M 1.921875 -18.171875 L 4.71875 -18.171875 L 4.71875 -2.46875 L 9.9375 -2.46875 L 9.9375 0 L 1.921875 0 Z M 1.921875 -18.171875 "/></g></g></g><g fill="#319f00" fill-opacity="1"><g transform="translate(120.467492, 21.804883)"><g><path d="M 1.90625 -18.171875 L 9.859375 -18.171875 L 9.859375 -15.75 L 4.640625 -15.75 L 4.640625 -10.734375 L 8.84375 -10.734375 L 8.84375 -8.25 L 4.640625 -8.25 L 4.640625 -2.453125 L 10.671875 -2.453125 L 10.671875 0 L 1.90625 0 Z M 1.90625 -18.171875 "/></g></g></g><g fill="#319f00" fill-opacity="1"><g transform="translate(132.003282, 21.804883)"><g><path d="M 1.921875 -18.171875 L 6.296875 -18.171875 C 9.960938 -18.171875 12.523438 -17.304688 13.984375 -15.578125 C 15.441406 -13.847656 16.171875 -11.785156 16.171875 -9.390625 C 16.171875 -7.722656 15.851562 -6.1875 15.21875 -4.78125 C 14.59375 -3.375 13.5625 -2.222656 12.125 -1.328125 C 10.6875 -0.441406 8.796875 0 6.453125 0 L 1.921875 0 Z M 6.75 -2.453125 C 9.019531 -2.453125 10.671875 -3.097656 11.703125 -4.390625 C 12.734375 -5.679688 13.25 -7.304688 13.25 -9.265625 C 13.25 -11.179688 12.726562 -12.738281 11.6875 -13.9375 C 10.65625 -15.144531 9.007812 -15.75 6.75 -15.75 L 4.703125 -15.75 L 4.703125 -2.453125 Z M 6.75 -2.453125 "/></g></g></g></svg>