<svg xmlns="http://www.w3.org/2000/svg" xmlns:xlink="http://www.w3.org/1999/xlink" width="250" zoomAndPan="magnify" viewBox="0 0 187.5 187.499992" height="250" preserveAspectRatio="xMidYMid meet" version="1.0"><defs><clipPath id="a5d0d0eb3d"><path d="M 29 4.207031 L 158 4.207031 L 158 182.980469 L 29 182.980469 Z M 29 4.207031 " clip-rule="nonzero"/></clipPath></defs><g clip-path="url(#a5d0d0eb3d)"><path fill="#000000" d="M 108.3125 72.363281 C 92.132812 66.359375 83.3125 61.742188 83.3125 54.417969 C 83.3125 48.230469 88.402344 44.699219 97.472656 44.699219 C 114.0625 44.699219 131.105469 51.089844 142.839844 56.847656 L 149.46875 15.925781 C 140.164062 11.46875 121.132812 4.207031 94.824219 4.207031 C 76.214844 4.207031 60.738281 9.078125 49.675781 18.152344 C 38.171875 27.648438 32.191406 41.390625 32.191406 57.972656 C 32.191406 88.058594 50.570312 100.878906 80.429688 111.746094 C 99.6875 118.597656 106.09375 123.472656 106.09375 130.988281 C 106.09375 138.285156 99.835938 142.496094 88.558594 142.496094 C 74.589844 142.496094 51.574219 135.636719 36.492188 126.785156 L 29.785156 168.164062 C 42.753906 175.457031 66.664062 182.980469 91.464844 182.980469 C 111.136719 182.980469 127.539062 178.332031 138.597656 169.476562 C 150.996094 159.753906 157.40625 145.371094 157.40625 126.777344 C 157.40625 96.027344 138.605469 83.195312 108.289062 72.363281 Z M 108.3125 72.363281 " fill-opacity="1" fill-rule="nonzero"/></g></svg>