<svg xmlns="http://www.w3.org/2000/svg" version="1.1" xmlns:xlink="http://www.w3.org/1999/xlink" viewBox="0 0 40 40">
                <path d="M32.7,16.7c0.6-4-2.4-6.1-6.6-7.6l1.3-5.4l-3.3-0.8l-1.3,5.3C22,8,21.1,7.8,20.2,7.6l1.3-5.3l-3.3-0.8l-1.3,5.4 c-0.7-0.2-1.4-0.3-2.1-0.5l0,0l-4.5-1.1L9.3,8.7c0,0,2.4,0.6,2.4,0.6c1.3,0.3,1.6,1.2,1.5,1.9l-1.5,6.2c0.1,0,0.2,0.1,0.3,0.1 c-0.1,0-0.2-0.1-0.3-0.1L9.6,26c-0.2,0.4-0.6,1-1.5,0.8c0,0-2.4-0.6-2.4-0.6L4,30l4.3,1.1c0.8,0.2,1.6,0.4,2.3,0.6l-1.4,5.5l3.3,0.8 l1.3-5.4c0.9,0.2,1.8,0.5,2.6,0.7l-1.3,5.4l3.3,0.8l1.4-5.5c5.6,1.1,9.8,0.6,11.6-4.4c1.4-4.1-0.1-6.4-3-8 C30.6,21.1,32.2,19.6,32.7,16.7L32.7,16.7z M25.2,27.3c-1,4.1-7.9,1.9-10.1,1.3l1.8-7.2C19.1,21.9,26.2,23,25.2,27.3z M26.2,16.7 c-0.9,3.7-6.7,1.8-8.5,1.4l1.6-6.6C21.2,11.9,27.1,12.8,26.2,16.7z"></path>
        </svg>