<svg xmlns="http://www.w3.org/2000/svg" version="1.1" xmlns:xlink="http://www.w3.org/1999/xlink" viewBox="0 0 40 40">
                <path d="M15.8,12.9c0,2.2,2.5,2.9,5.5,4c5.1,1.7,9.4,3.8,9.4,8.9c0,5.5-4.2,9.2-11.2,9.6l-0.6,2.9c-0.1,0.5-0.6,0.9-1.2,0.9h-4.4 c-0.1,0-0.1,0-0.2,0c-0.7-0.1-1.1-0.8-0.9-1.4l0.7-3.1c-2.6-0.7-5-2-7-3.8c0,0,0,0,0,0c-0.4-0.5-0.4-1.2,0-1.7l2.4-2.4 c0.5-0.4,1.2-0.4,1.7,0c2.2,2.1,5.2,3.3,8.3,3.2c3.2,0,5.3-1.3,5.3-3.5s-2.2-2.7-6.2-4.2c-4.3-1.5-8.4-3.7-8.4-8.8 c0-5.9,4.9-8.7,10.7-9l0.6-3c0.1-0.5,0.6-0.9,1.2-0.9h4.4c0.1,0,0.2,0,0.2,0c0.6,0.1,1,0.8,0.9,1.4l-0.7,3.3c2.2,0.7,4.3,1.9,6,3.4 c0,0,0,0,0.1,0.1c0.5,0.5,0.4,1.2,0,1.6L30,12.8c-0.5,0.4-1.2,0.5-1.6,0c-2.2-1.9-5-2.9-7.9-2.9C18.1,10,15.8,10.8,15.8,12.9z"></path>
        </svg>